<?xml version="1.0" encoding="UTF-8" standalone="no"?> <svg width="64" height="64" viewBox="0 0 64 64" fill="none" xmlns="http://www.w3.org/2000/svg">
<path d="M61.3502 49.1801L55.5502 37.1201C57.1418 34.3485 58.1383 31.2756 58.4761 28.0975C58.8139 24.9193 58.4856 21.7056 57.5121 18.6614C56.5387 15.6171 54.9415 12.8092 52.8224 10.4167C50.7033 8.02411 48.1088 6.09949 45.2044 4.76555C42.3 3.4316 39.1494 2.71763 35.9537 2.66915C32.758 2.62067 29.5873 3.23877 26.6438 4.484C23.7003 5.72924 21.0486 7.57428 18.8579 9.90145C16.6671 12.2286 14.9855 14.9868 13.9202 18.0001C13.8413 18.1917 13.8029 18.3976 13.8075 18.6048C13.8121 18.812 13.8596 19.016 13.947 19.2039C14.0344 19.3918 14.1597 19.5596 14.3152 19.6966C14.4706 19.8336 14.6528 19.937 14.8502 20.0001C15.1388 20.0991 15.4508 20.1071 15.7441 20.0231C16.0374 19.939 16.2978 19.7669 16.4902 19.5301L46.6802 43.6701C46.5746 44.0139 46.5951 44.3841 46.7381 44.714C46.8811 45.044 47.1371 45.3121 47.4602 45.4701L59.3502 51.1801C59.553 51.278 59.775 51.3292 60.0002 51.3301C60.2537 51.3298 60.5031 51.2652 60.7249 51.1424C60.9468 51.0196 61.1338 50.8425 61.2687 50.6278C61.4035 50.413 61.4817 50.1676 61.496 49.9145C61.5102 49.6613 61.4601 49.4086 61.3502 49.1801V49.1801Z" fill="#275996"/>
<path d="M28.3101 12.6699C24.2601 12.668 20.2813 13.7355 16.7761 15.7645C13.271 17.7935 10.3638 20.7122 8.34851 24.2252C6.33322 27.7383 5.28131 31.7212 5.29915 35.7712C5.31699 39.8213 6.40395 43.7948 8.45011 47.2899L2.65011 59.3499C2.51643 59.6298 2.47281 59.9443 2.52527 60.25C2.57772 60.5557 2.72366 60.8377 2.943 61.057C3.16234 61.2764 3.44429 61.4223 3.75001 61.4748C4.05573 61.5272 4.3702 61.4836 4.65011 61.3499L16.7101 55.5499C19.761 57.325 23.1796 58.3741 26.7011 58.6159C30.2225 58.8577 33.7524 58.2857 37.0173 56.9443C40.2822 55.6029 43.1946 53.528 45.5289 50.8804C47.8632 48.2327 49.5568 45.0833 50.4786 41.676C51.4003 38.2687 51.5255 34.695 50.8444 31.2316C50.1632 27.7682 48.6941 24.5081 46.5507 21.7036C44.4073 18.8991 41.6472 16.6256 38.4842 15.0591C35.3211 13.4925 31.8399 12.6751 28.3101 12.6699V12.6699Z" fill="#97CCEF"/>
<path d="M21.4502 28.1201H35.4502C35.848 28.1201 36.2296 27.9621 36.5109 27.6808C36.7922 27.3995 36.9502 27.0179 36.9502 26.6201C36.9502 26.2223 36.7922 25.8408 36.5109 25.5595C36.2296 25.2782 35.848 25.1201 35.4502 25.1201H21.4502C21.0524 25.1201 20.6708 25.2782 20.3895 25.5595C20.1082 25.8408 19.9502 26.2223 19.9502 26.6201C19.9502 27.0179 20.1082 27.3995 20.3895 27.6808C20.6708 27.9621 21.0524 28.1201 21.4502 28.1201V28.1201Z" fill="#0099D6"/>
<path d="M15.4001 34.3799H41.5301C41.928 34.3799 42.3095 34.2218 42.5908 33.9405C42.8721 33.6592 43.0301 33.2777 43.0301 32.8799C43.0301 32.4821 42.8721 32.1005 42.5908 31.8192C42.3095 31.5379 41.928 31.3799 41.5301 31.3799H15.4001C15.0023 31.3799 14.6208 31.5379 14.3395 31.8192C14.0582 32.1005 13.9001 32.4821 13.9001 32.8799C13.9001 33.2777 14.0582 33.6592 14.3395 33.9405C14.6208 34.2218 15.0023 34.3799 15.4001 34.3799V34.3799Z" fill="#0099D6"/>
<path d="M41.5301 37.6299H15.4001C15.0023 37.6299 14.6208 37.7879 14.3395 38.0692C14.0582 38.3505 13.9001 38.7321 13.9001 39.1299C13.9001 39.5277 14.0582 39.9092 14.3395 40.1905C14.6208 40.4718 15.0023 40.6299 15.4001 40.6299H41.5301C41.928 40.6299 42.3095 40.4718 42.5908 40.1905C42.8721 39.9092 43.0301 39.5277 43.0301 39.1299C43.0301 38.7321 42.8721 38.3505 42.5908 38.0692C42.3095 37.7879 41.928 37.6299 41.5301 37.6299V37.6299Z" fill="#0099D6"/>
<path d="M35.4802 43.8901H21.4802C21.0824 43.8901 20.7009 44.0482 20.4196 44.3295C20.1383 44.6108 19.9802 44.9923 19.9802 45.3901C19.9802 45.788 20.1383 46.1695 20.4196 46.4508C20.7009 46.7321 21.0824 46.8901 21.4802 46.8901H35.4802C35.878 46.8901 36.2596 46.7321 36.5409 46.4508C36.8222 46.1695 36.9802 45.788 36.9802 45.3901C36.9802 44.9923 36.8222 44.6108 36.5409 44.3295C36.2596 44.0482 35.878 43.8901 35.4802 43.8901V43.8901Z" fill="#0099D6"/>
</svg>
