<?xml version="1.0" encoding="iso-8859-1"?>
<!-- Generator: Adobe Illustrator 16.0.0, SVG Export Plug-In . SVG Version: 6.00 Build 0)  -->
<!DOCTYPE svg PUBLIC "-//W3C//DTD SVG 1.1//EN" "http://www.w3.org/Graphics/SVG/1.1/DTD/svg11.dtd">
<svg version="1.1" xmlns="http://www.w3.org/2000/svg" xmlns:xlink="http://www.w3.org/1999/xlink" x="0px" y="0px" width="520px"
	 height="520px" viewBox="0 0 520 520" style="enable-background:new 0 0 520 520;" xml:space="preserve">
<g id="_x38_43_x2C__Doctor_x2C__File_x2C__Healthcare_x2C__History">
	<g>
		<g>
			<rect x="80" y="40" style="fill:#ECF0F1;" width="360" height="440"/>
			<path style="fill:#E3835A;" d="M440,276.15l15.86-15.86c7.81-7.81,20.47-7.81,28.279,0c3.9,3.91,5.86,9.03,5.86,14.15
				c0,5.119-1.96,10.239-5.86,14.14l-21.21,21.21l-28.29-28.28L440,276.15z"/>
			<polygon style="fill:#3C3B3D;" points="462.93,309.79 440,332.72 356.86,415.86 314.44,430 328.58,387.57 434.64,281.51 			"/>
			<polygon style="fill:#F14742;" points="400,105 400,135 375,135 375,160 345,160 345,135 320,135 320,105 345,105 345,80 375,80 
				375,105 			"/>
			<path style="fill:#74829C;" d="M477.07,112.93c1.81,1.81,2.93,4.31,2.93,7.07s-1.12,5.26-2.93,7.07
				c-1.811,1.81-4.311,2.93-7.07,2.93c-5.52,0-10-4.48-10-10c0-2.76,1.12-5.26,2.93-7.07c1.811-1.81,4.311-2.93,7.07-2.93
				S475.26,111.12,477.07,112.93z"/>
			<path style="fill:#65B2FE;" d="M207.07,432.93c1.81,1.811,2.93,4.311,2.93,7.07s-1.12,5.26-2.93,7.07
				c-1.81,1.81-4.31,2.93-7.07,2.93c-5.52,0-10-4.48-10-10c0-2.76,1.12-5.26,2.93-7.07c1.81-1.81,4.31-2.93,7.07-2.93
				S205.26,431.12,207.07,432.93z"/>
			<path style="fill:#74829C;" d="M47.07,242.93c1.81,1.81,2.93,4.31,2.93,7.07s-1.12,5.26-2.93,7.07C45.26,258.88,42.76,260,40,260
				c-5.52,0-10-4.48-10-10c0-2.76,1.12-5.26,2.93-7.07S37.24,240,40,240S45.26,241.12,47.07,242.93z"/>
			<path style="fill:#74829C;" d="M47.07,382.93C48.88,384.74,50,387.24,50,390s-1.12,5.26-2.93,7.07C45.26,398.88,42.76,400,40,400
				c-5.52,0-10-4.48-10-10c0-2.76,1.12-5.26,2.93-7.07c1.81-1.81,4.31-2.93,7.07-2.93S45.26,381.12,47.07,382.93z"/>
			<path style="fill:#B3B3B3;" d="M270,100H120c-5.523,0-10-4.477-10-10s4.477-10,10-10h150c5.522,0,10,4.477,10,10
				S275.522,100,270,100z"/>
			<path style="fill:#B3B3B3;" d="M270,130H120c-5.523,0-10-4.477-10-10s4.477-10,10-10h150c5.522,0,10,4.477,10,10
				S275.522,130,270,130z"/>
			<path style="fill:#B3B3B3;" d="M270,160H120c-5.523,0-10-4.477-10-10s4.477-10,10-10h150c5.522,0,10,4.477,10,10
				S275.522,160,270,160z"/>
			<path style="fill:#B3B3B3;" d="M290,190H120c-5.523,0-10-4.477-10-10s4.477-10,10-10h170c5.522,0,10,4.477,10,10
				S295.522,190,290,190z"/>
			<path style="fill:#B3B3B3;" d="M400,220H120c-5.523,0-10-4.477-10-10s4.477-10,10-10h280c5.522,0,10,4.477,10,10
				S405.522,220,400,220z"/>
			<path style="fill:#B3B3B3;" d="M400,250H120c-5.523,0-10-4.477-10-10s4.477-10,10-10h280c5.522,0,10,4.477,10,10
				S405.522,250,400,250z"/>
			<path style="fill:#B3B3B3;" d="M400,280H120c-5.523,0-10-4.478-10-10s4.477-10,10-10h280c5.522,0,10,4.478,10,10
				S405.522,280,400,280z"/>
			<path style="fill:#B3B3B3;" d="M350,310H120c-5.523,0-10-4.478-10-10s4.477-10,10-10h230c5.522,0,10,4.478,10,10
				S355.522,310,350,310z"/>
			<path style="fill:#B3B3B3;" d="M320,340H120c-5.523,0-10-4.478-10-10s4.477-10,10-10h200c5.522,0,10,4.478,10,10
				S325.522,340,320,340z"/>
			<path style="fill:#65B2FE;" d="M280,450h-50c-5.523,0-10-4.478-10-10s4.477-10,10-10h50c5.522,0,10,4.478,10,10
				S285.522,450,280,450z"/>
		</g>
	</g>
</g>
<g id="Layer_1">
</g>
</svg>
