<svg xmlns="http://www.w3.org/2000/svg" version="1.1" xmlns:xlink="http://www.w3.org/1999/xlink" xmlns:svgjs="http://svgjs.dev/svgjs" width="128" height="128" viewBox="0 0 128 128"><g transform="matrix(0.8046875,0,0,0.8046875,12.30075141185614,12.760752631578946)"><svg viewBox="0 0 95 95" data-background-color="#293040" preserveAspectRatio="xMidYMid meet" height="128" width="128" xmlns="http://www.w3.org/2000/svg" xmlns:xlink="http://www.w3.org/1999/xlink"><g id="tight-bounds" transform="matrix(1,0,0,1,0.18377296964725076,-0.24049999999999727)"><svg viewBox="0 0 94.63245406070547 95.481" height="95.481" width="94.63245406070547"><g><svg viewBox="0 0 94.63245406070547 95.481" height="95.481" width="94.63245406070547"><g><svg viewBox="0 0 94.63245406070547 95.481" height="95.481" width="94.63245406070547"><g id="textblocktransform"><svg viewBox="0 0 94.63245406070547 95.481" height="95.481" width="94.63245406070547" id="textblock"><g><svg viewBox="0 0 94.63245406070547 95.481" height="95.481" width="94.63245406070547"><g><svg viewBox="0 0 94.63245406070547 95.481" height="95.481" width="94.63245406070547"><g><svg xmlns="http://www.w3.org/2000/svg" xmlns:xlink="http://www.w3.org/1999/xlink" version="1.1" x="0" y="0" viewBox="24.62700000000002 24.401 50.742999999999995 51.19800000000001" enable-background="new 0 0 100 100" xml:space="preserve" height="95.481" width="94.63245406070547" class="icon-icon-0" data-fill-palette-color="accent" id="icon-0"><path d="M67.198 64.801c-1.113 0-2.016 0.901-2.016 2.015 0 1.112 0.902 2.014 2.016 2.014 1.111 0 2.014-0.901 2.014-2.014C69.212 65.702 68.31 64.801 67.198 64.801zM67.197 58.642c-1.722 0-3.319 0.538-4.638 1.451-2.98-2.796-6.113-4.943-9.254-6.846 4.577-2.579 9.25-5.3 13.143-9.193 2.175-2.173 3.373-5.064 3.373-8.14s-1.198-5.967-3.372-8.14c-2.175-2.175-5.065-3.373-8.141-3.373-3.026 0-5.874 1.16-8.034 3.268-2.162-2.108-5.008-3.268-8.033-3.268-3.075 0-5.967 1.198-8.142 3.373-2.174 2.173-3.372 5.064-3.372 8.14 0 3.076 1.198 5.967 3.372 8.14 3.904 3.904 8.375 6.44 13.11 9.126l0.076 0.044c-2.868 1.689-5.64 3.536-8.055 5.729-1.427-1.012-3.122-1.563-4.905-1.563-2.274 0-4.412 0.886-6.019 2.494l-3.241 3.239c-0.281 0.281-0.438 0.663-0.438 1.061 0 0.398 0.158 0.779 0.438 1.061 0.001 0 0.001 0 0.002 0.001l1.984 1.982c0.588 0.585 1.537 0.585 2.121-0.001 0.586-0.586 0.586-1.535 0-2.121l0 0-0.924-0.922 2.18-2.18c1.041-1.041 2.424-1.614 3.896-1.614 1.471 0 2.855 0.573 3.896 1.615 2.149 2.148 2.148 5.646 0 7.796l-2.178 2.177-0.922-0.922v-0.001c-0.586-0.585-1.535-0.586-2.121 0s-0.586 1.535 0 2.121l1.982 1.984c0.281 0.281 0.662 0.439 1.061 0.439s0.779-0.158 1.061-0.439l3.238-3.238c2.949-2.951 3.271-7.541 0.979-10.855 2.598-2.342 5.683-4.24 8.972-6.118 3.462 2.026 6.929 4.272 10.146 7.275-0.894 1.31-1.418 2.892-1.418 4.593 0 4.507 3.668 8.174 8.175 8.174s8.175-3.667 8.175-8.174S71.704 58.642 67.197 58.642zM50.309 51.491c-0.541-0.31-1.081-0.615-1.618-0.921-4.554-2.582-8.854-5.021-12.47-8.638-1.607-1.607-2.493-3.744-2.493-6.019s0.886-4.411 2.494-6.019c1.607-1.608 3.745-2.494 6.02-2.494s4.411 0.886 6.02 2.494c0.264 0.265 0.521 0.568 0.811 0.957 0.283 0.381 0.729 0.604 1.203 0.604h0.002c0.475-0.001 0.922-0.226 1.204-0.607 0.287-0.388 0.543-0.689 0.808-0.954 1.609-1.608 3.747-2.494 6.021-2.494 2.274 0 4.411 0.886 6.019 2.494 1.608 1.607 2.494 3.744 2.494 6.019s-0.886 4.411-2.494 6.019c-3.827 3.828-8.639 6.533-13.291 9.148C50.794 51.218 50.552 51.354 50.309 51.491zM67.197 71.989c-2.853 0-5.175-2.321-5.175-5.174s2.322-5.174 5.175-5.174 5.175 2.321 5.175 5.174S70.05 71.989 67.197 71.989z" fill="#8cc4e1" data-fill-palette-color="accent"></path></svg></g></svg></g></svg></g></svg></g></svg></g></svg></g><defs></defs></svg><rect width="94.63245406070547" height="95.481" fill="none" stroke="none" visibility="hidden"></rect></g></svg></g></svg>